<?xml version="1.0" encoding="UTF-8" standalone="no"?>
<!-- Created with Inkscape (http://www.inkscape.org/) -->

<svg
   xmlns:dc="http://purl.org/dc/elements/1.1/"
   xmlns:cc="http://creativecommons.org/ns#"
   xmlns:rdf="http://www.w3.org/1999/02/22-rdf-syntax-ns#"
   xmlns:svg="http://www.w3.org/2000/svg"
   xmlns="http://www.w3.org/2000/svg"
   xmlns:sodipodi="http://sodipodi.sourceforge.net/DTD/sodipodi-0.dtd"
   xmlns:inkscape="http://www.inkscape.org/namespaces/inkscape"
   width="200mm"
   height="200mm"
   viewBox="0 0 200 200"
   version="1.1"
   id="svg8"
   inkscape:version="0.92.4 (5da689c313, 2019-01-14)"
   sodipodi:docname="party-popper.svg">
  <defs
     id="defs2">
    <inkscape:path-effect
       effect="spiro"
       id="path-effect912"
       is_visible="true" />
    <inkscape:path-effect
       effect="spiro"
       id="path-effect848"
       is_visible="true" />
    <inkscape:path-effect
       effect="spiro"
       id="path-effect840"
       is_visible="true" />
    <inkscape:path-effect
       effect="spiro"
       id="path-effect836"
       is_visible="true" />
    <inkscape:path-effect
       effect="spiro"
       id="path-effect912-4"
       is_visible="true" />
  </defs>
  <sodipodi:namedview
     id="base"
     pagecolor="#ffffff"
     bordercolor="#666666"
     borderopacity="1.0"
     inkscape:pageopacity="0.0"
     inkscape:pageshadow="2"
     inkscape:zoom="0.35"
     inkscape:cx="967.76792"
     inkscape:cy="309.42736"
     inkscape:document-units="mm"
     inkscape:current-layer="layer1"
     showgrid="false"
     showguides="false"
     inkscape:window-width="1920"
     inkscape:window-height="1011"
     inkscape:window-x="-9"
     inkscape:window-y="-9"
     inkscape:window-maximized="1" />
  <metadata
     id="metadata5">
    <rdf:RDF>
      <cc:Work
         rdf:about="">
        <dc:format>image/svg+xml</dc:format>
        <dc:type
           rdf:resource="http://purl.org/dc/dcmitype/StillImage" />
        <dc:title />
      </cc:Work>
    </rdf:RDF>
  </metadata>
  <g
     inkscape:label="Layer 1"
     inkscape:groupmode="layer"
     id="layer1"
     transform="translate(0,-97)">
    <path
       transform="rotate(90,-235.20088,89.769343)"
       style="fill:none;fill-opacity:1;stroke:#f5f5fc;stroke-width:12;stroke-linecap:butt;stroke-linejoin:round;stroke-miterlimit:4;stroke-dasharray:none;stroke-opacity:1"
       inkscape:transform-center-x="-16.369506"
       inkscape:transform-center-y="-6.0430099"
       d="m -38.175597,-162.81844 -74.631183,-11.92171 -74.09323,-8.06695 c 29.64119,10.37619 100.426302,-52.43477 93.719658,-118.01673 l 25.290195,68.51449 z"
       id="path890"
       inkscape:connector-curvature="0"
       sodipodi:nodetypes="cccccc" />
    <ellipse
       style="fill:none;fill-opacity:1;stroke:#f5f5fc;stroke-width:12.29492283;stroke-linecap:butt;stroke-linejoin:round;stroke-miterlimit:4;stroke-dasharray:none;stroke-opacity:1"
       id="path892"
       cx="89.629715"
       cy="-171.83685"
       rx="36.61784"
       ry="77.288071"
       transform="matrix(-0.43683145,0.89954338,-0.82445919,-0.56592141,0,0)" />
    <path
       style="fill:none;stroke:#f5f5fc;stroke-width:13.71316108;stroke-linecap:butt;stroke-linejoin:miter;stroke-miterlimit:4;stroke-dasharray:none;stroke-opacity:1"
       d="m 109.04597,169.24517 c 16.11347,4.57379 33.93682,2.80759 48.83925,-4.83971 14.90242,-7.6473 26.73035,-21.09689 32.41068,-36.85434 1.78853,-4.96146 2.99497,-10.2977 2.13816,-15.50163 -0.62434,-3.79198 -2.35623,-7.39487 -4.92758,-10.25093 -2.57135,-2.856059 -5.97325,-4.955414 -9.6791,-5.973079 -3.70584,-1.017665 -7.7028,-0.95012 -11.37214,0.192179 -3.66934,1.142299 -6.99837,3.3554 -9.47174,6.29671 -2.47338,2.94132 -4.08255,6.60066 -4.57841,10.41157 -0.49586,3.81091 0.12331,7.7602 1.76166,11.23651 1.63834,3.47631 4.29019,6.46762 7.54505,8.51086 3.25485,2.04325 7.10144,3.13136 10.94431,3.0959"
       id="path834"
       inkscape:connector-curvature="0"
       inkscape:path-effect="#path-effect836"
       inkscape:original-d="m 109.04597,169.24517 c 27.08357,-13.89828 54.16688,-27.7963 81.24993,-41.69405 27.08305,-13.89775 1.4257,-10.33469 2.13816,-15.50163 0.71245,-5.16695 -13.18503,15.67955 -19.77795,23.51972"
       transform="matrix(0.82020301,0,0,0.93361104,34.180653,38.622365)" />
    <path
       style="fill:none;stroke:#f5f5fc;stroke-width:8.47567844;stroke-linecap:butt;stroke-linejoin:miter;stroke-miterlimit:4;stroke-dasharray:none;stroke-opacity:1"
       d="m 84.991709,167.64155 c 0.896254,-15.68051 6.340515,-31.07463 15.501631,-43.8322 5.68834,-7.92145 12.78052,-14.83179 20.84702,-20.31249"
       id="path838"
       inkscape:connector-curvature="0"
       inkscape:path-effect="#path-effect840"
       inkscape:original-d="m 84.991709,167.64155 c 5.167474,-14.43282 10.334686,-29.22173 15.501631,-43.8322 5.16695,-14.61047 13.89828,-13.54192 20.84702,-20.31249"
       transform="matrix(1.4241162,0,0,1.4075638,-28.186796,-41.857732)" />
    <path
       style="fill:none;stroke:#f5f5fc;stroke-width:10.08646774;stroke-linecap:butt;stroke-linejoin:miter;stroke-miterlimit:4;stroke-dasharray:none;stroke-opacity:1"
       d="m 73.766388,166.57247 c 6.803928,-9.91789 8.733599,-23.01934 5.078121,-34.47777 -2.651981,-8.31287 -8.135473,-15.69402 -15.328568,-20.63328 -7.193095,-4.93926 -16.051161,-7.40598 -24.76186,-6.89548"
       id="path846"
       inkscape:connector-curvature="0"
       inkscape:path-effect="#path-effect848"
       inkscape:original-d="m 73.766388,166.57247 c 1.514793,-11.49285 3.38568,-22.98544 5.078121,-34.47777 1.692442,-11.49232 -26.726686,-18.35277 -40.090428,-27.52876"
       transform="matrix(1.0226929,0,0,1.0808142,-0.31311786,-9.4562448)" />
    <circle
       style="fill:none;fill-opacity:1;stroke:#f5f5fc;stroke-width:12;stroke-linecap:butt;stroke-linejoin:round;stroke-miterlimit:4;stroke-dasharray:none;stroke-opacity:1"
       id="path862"
       cx="186.55412"
       cy="206.93016"
       r="5.8799295" />
    <circle
       style="fill:none;fill-opacity:1;stroke:#f5f5fc;stroke-width:12;stroke-linecap:butt;stroke-linejoin:round;stroke-miterlimit:4;stroke-dasharray:none;stroke-opacity:1"
       id="path862-5"
       cx="121.74982"
       cy="176.96315"
       r="5.8799295" />
    <circle
       style="fill:none;fill-opacity:1;stroke:#f5f5fc;stroke-width:12;stroke-linecap:butt;stroke-linejoin:round;stroke-miterlimit:4;stroke-dasharray:none;stroke-opacity:1"
       id="path862-8"
       cx="59.36396"
       cy="150.09291"
       r="5.8799295" />
    <path
       style="fill:none;stroke:#f5f5fc;stroke-width:11.12629223;stroke-linecap:butt;stroke-linejoin:miter;stroke-miterlimit:4;stroke-dasharray:none;stroke-opacity:1"
       d="m 35.52976,204.39583 c 4.942532,11.83432 12.798175,22.43943 22.678573,30.61607 10.494223,8.68462 23.255781,14.60493 36.66369,17.00893"
       id="path910"
       inkscape:connector-curvature="0"
       inkscape:path-effect="#path-effect912"
       inkscape:original-d="m 35.52976,204.39583 c 7.559789,10.20509 15.119313,20.41045 22.678573,30.61607 7.559259,10.20563 24.442724,11.33902 36.66369,17.00893"
       transform="matrix(1.1244052,0,0,1.147693,-8.5711701,-36.82424)" />
    <path
       style="fill:none;stroke:#f5f5fc;stroke-width:19.649086;stroke-linecap:butt;stroke-linejoin:miter;stroke-miterlimit:4;stroke-dasharray:none;stroke-opacity:1"
       d="m 35.52976,204.39583 c 4.942532,11.83432 12.798175,22.43943 22.678573,30.61607 10.494223,8.68462 23.255781,14.60493 36.66369,17.00893"
       id="path910-7"
       inkscape:connector-curvature="0"
       inkscape:path-effect="#path-effect912-4"
       inkscape:original-d="m 35.52976,204.39583 c 7.559789,10.20509 15.119313,20.41045 22.678573,30.61607 7.559259,10.20563 24.442724,11.33902 36.66369,17.00893"
       transform="matrix(0.63290161,0,0,0.64539068,3.7040739,104.13852)" />
  </g>
</svg>
