<?xml version="1.0" encoding="UTF-8"?>
<svg width="200mm" height="200mm" version="1.1" viewBox="0 0 200 200" xmlns="http://www.w3.org/2000/svg" xmlns:cc="http://creativecommons.org/ns#" xmlns:dc="http://purl.org/dc/elements/1.1/" xmlns:rdf="http://www.w3.org/1999/02/22-rdf-syntax-ns#">
<metadata>
<rdf:RDF>
<cc:Work rdf:about="">
<dc:format>image/svg+xml</dc:format>
<dc:type rdf:resource="http://purl.org/dc/dcmitype/StillImage"/>
<dc:title/>
</cc:Work>
</rdf:RDF>
</metadata>
<g transform="translate(0,-97)" fill="none" stroke="#f5f5fc">
<path transform="rotate(90 -235.2 89.769)" d="m-38.176-162.82-74.631-11.922-74.093-8.067c29.641 10.376 100.43-52.435 93.72-118.02l25.29 68.514z" stroke-linejoin="round" stroke-width="12"/>
<ellipse transform="matrix(-.43683 .89954 -.82446 -.56592 0 0)" cx="89.63" cy="-171.84" rx="36.618" ry="77.288" stroke-linejoin="round" stroke-width="12.295"/>
<path transform="matrix(.8202 0 0 .93361 34.181 38.622)" d="m109.05 169.25c16.113 4.5738 33.937 2.8076 48.839-4.8397 14.902-7.6473 26.73-21.097 32.411-36.854 1.7885-4.9615 2.995-10.298 2.1382-15.502-0.62434-3.792-2.3562-7.3949-4.9276-10.251-2.5714-2.8561-5.9732-4.9554-9.6791-5.9731-3.7058-1.0177-7.7028-0.95012-11.372 0.19218s-6.9984 3.3554-9.4717 6.2967c-2.4734 2.9413-4.0826 6.6007-4.5784 10.412s0.12331 7.7602 1.7617 11.237c1.6383 3.4763 4.2902 6.4676 7.545 8.5109 3.2548 2.0432 7.1014 3.1314 10.944 3.0959" stroke-width="13.713"/>
<path transform="matrix(1.4241 0 0 1.4076 -28.187 -41.858)" d="m84.992 167.64c0.89625-15.681 6.3405-31.075 15.502-43.832 5.6883-7.9214 12.781-14.832 20.847-20.312" stroke-width="8.4757"/>
<path transform="matrix(1.0227 0 0 1.0808 -.31312 -9.4562)" d="m73.766 166.57c6.8039-9.9179 8.7336-23.019 5.0781-34.478-2.652-8.3129-8.1355-15.694-15.329-20.633s-16.051-7.406-24.762-6.8955" stroke-width="10.086"/>
<circle cx="186.55" cy="206.93" r="5.8799" stroke-linejoin="round" stroke-width="12"/>
<circle cx="121.75" cy="176.96" r="5.8799" stroke-linejoin="round" stroke-width="12"/>
<circle cx="59.364" cy="150.09" r="5.8799" stroke-linejoin="round" stroke-width="12"/>
<path transform="matrix(1.1244 0 0 1.1477 -8.5712 -36.824)" d="m35.53 204.4c4.9425 11.834 12.798 22.439 22.679 30.616 10.494 8.6846 23.256 14.605 36.664 17.009" stroke-width="11.126"/>
<path transform="matrix(.6329 0 0 .64539 3.7041 104.14)" d="m35.53 204.4c4.9425 11.834 12.798 22.439 22.679 30.616 10.494 8.6846 23.256 14.605 36.664 17.009" stroke-width="19.649"/>
</g>
</svg>
